<svg width="33" height="16" viewBox="0 0 33 16" fill="none" xmlns="http://www.w3.org/2000/svg">
<path d="M10.3217 3.92859L10.3017 1.80859H1.78166V9.20859C2.72166 9.10859 4.62166 9.02859 5.46166 9.02859C7.26166 9.02859 8.36166 9.90859 8.36166 11.3286C8.36166 12.9086 7.26166 13.8486 5.44166 13.8486C4.18166 13.8486 2.78166 13.3086 1.66166 12.3686L0.72166 14.2886C2.10166 15.2486 4.04166 15.8886 5.70166 15.8886C8.84166 15.8886 10.8817 14.0286 10.8817 11.1886C10.8817 8.72859 8.92166 6.92859 5.88166 6.92859L3.96166 6.94859V3.92859H10.3217ZM17.6446 10.9286L20.7646 15.8086H23.4846L19.2446 9.28859L23.1846 5.16859H20.5446L15.8446 9.92859V0.968593H13.5446V15.8086H15.8446V12.8286L17.6446 10.9286ZM32.8992 10.1086V8.52859H29.3792V5.02859H27.8792V8.52859H24.3392V10.1086H27.8792V13.6086H29.3792V10.1086H32.8992Z" fill="white"/>
</svg>
