<svg width="146" height="139" viewBox="0 0 146 139" fill="none" xmlns="http://www.w3.org/2000/svg">
<g opacity="0.2">
<path opacity="0.2" d="M72.9078 138.949C33.0498 138.949 0.59082 107.878 0.59082 69.7244C0.59082 31.5709 33.0498 0.5 72.9078 0.5C112.766 0.5 145.225 31.5709 145.225 69.7244C145.225 107.878 112.766 138.949 72.9078 138.949ZM72.9078 11.0397C39.0836 11.0397 11.6013 37.3466 11.6013 69.7244C11.6013 102.102 39.0836 128.409 72.9078 128.409C106.732 128.409 134.214 102.102 134.214 69.7244C134.214 37.3466 106.688 11.0397 72.9078 11.0397Z" fill="#3A86FF"/>
</g>
<path d="M72.9078 138.949C33.0498 138.949 0.59082 107.878 0.59082 69.7244C0.59082 31.5709 33.0498 0.5 72.9078 0.5C78.6333 0.5 84.3588 1.13238 89.9081 2.4393C92.8589 3.11383 94.6646 5.98062 93.9599 8.80525C93.2553 11.6299 90.2604 13.3584 87.3096 12.6838C82.6411 11.5877 77.7525 11.0397 72.9078 11.0397C39.0836 11.0397 11.6013 37.3466 11.6013 69.7244C11.6013 102.102 39.0836 128.409 72.9078 128.409C106.732 128.409 134.214 102.102 134.214 69.7244C134.214 65.7194 133.774 61.7565 132.981 57.8779C132.365 55.0111 134.302 52.2286 137.253 51.6384C140.204 51.0482 143.155 52.9032 143.771 55.7278C144.74 60.2809 145.225 64.9605 145.225 69.6823C145.225 107.878 112.766 138.949 72.9078 138.949Z" fill="#3A86FF"/>
<path d="M71.7414 57.5412C71.7414 61.4198 68.8746 65.5513 64.9539 69.5986L56.9016 77.9881H73.0061V84.86H46.2354V79.2529L59.3889 65.3406C61.6233 63.064 63.1832 60.4923 63.1832 58.7638C63.1832 56.4872 61.4125 55.1382 58.4193 55.1382C55.426 55.1382 51.716 56.9088 48.512 59.6913L45.3501 53.5783C49.7768 50.2056 54.5828 48.182 59.6419 48.182C66.6824 48.1398 71.7414 51.8076 71.7414 57.5412Z" fill="#3A86FF"/>
<path d="M104.204 57.7937C104.204 60.9977 102.349 63.8645 99.356 65.3822C103.445 66.9842 106.059 70.4834 106.059 74.6149C106.059 81.1074 100.368 85.1968 91.4723 85.1968C82.4925 85.1968 76.8433 81.1495 76.8433 74.6993C76.8433 70.4834 79.5836 66.9842 83.9681 65.34C80.764 63.6959 78.7404 60.7869 78.7404 57.5407C78.7404 51.7228 83.7151 48.0972 91.4723 48.0972C99.2295 48.1393 104.204 51.8914 104.204 57.7937ZM84.6426 73.8561C84.6426 77.1866 87.0878 78.9994 91.5145 78.9994C95.8146 78.9994 98.3863 77.1866 98.3863 73.8982C98.3863 70.6942 95.899 68.8814 91.4723 68.8814C87.0878 68.8392 84.6426 70.652 84.6426 73.8561ZM85.6123 58.2574C85.6123 61.082 87.7202 62.684 91.4723 62.684C95.1401 62.684 97.248 61.082 97.248 58.2574C97.248 55.3906 95.1823 53.7886 91.4723 53.7886C87.7623 53.7886 85.6123 55.3906 85.6123 58.2574Z" fill="#3A86FF"/>
</svg>
